<?xml version="1.0" encoding="UTF-8" standalone="no"?>
<!DOCTYPE svg PUBLIC "-//W3C//DTD SVG 1.0//EN" "http://www.w3.org/TR/2001/PR-SVG-20010719/DTD/svg10.dtd">
<svg width="25cm" height="16cm" viewBox="273 -122 488 303" xmlns="http://www.w3.org/2000/svg" xmlns:xlink="http://www.w3.org/1999/xlink">
  <g>
    <g>
      <rect style="fill: #b1f0aa" x="540" y="100" width="220" height="80"/>
      <rect style="fill: none; fill-opacity:0; stroke-width: 2; stroke: #000000" x="540" y="100" width="220" height="80"/>
    </g>
    <text style="fill: #000000;text-anchor:middle;font-size:12.7998;font-family:sanserif;font-style:normal;font-weight:normal" x="650" y="128.45">
      <tspan x="650" y="128.45">L'apprentissage se</tspan>
      <tspan x="650" y="144.45">manifeste par la </tspan>
      <tspan x="650" y="160.45">construction de connaissances</tspan>
    </text>
    <g>
      <rect style="fill: #ffda92" x="539" y="-20" width="220" height="80"/>
      <rect style="fill: none; fill-opacity:0; stroke-width: 2; stroke-dasharray: 4; stroke: #000000" x="539" y="-20" width="220" height="80"/>
    </g>
    <text style="fill: #000000;text-anchor:middle;font-size:12.7998;font-family:sanserif;font-style:normal;font-weight:normal" x="649" y="0.45">
      <tspan x="649" y="0.45">L'enseignement met l'élève</tspan>
      <tspan x="649" y="16.45">dans des situation complexes</tspan>
      <tspan x="649" y="32.45">à résoudre en lui donnant un</tspan>
      <tspan x="649" y="48.45">soutien</tspan>
    </text>
    <g>
      <g>
        <ellipse style="fill: #4038b9" cx="649" cy="-90" rx="90" ry="30"/>
        <ellipse style="fill: none; fill-opacity:0; stroke-width: 2; stroke: #000000" cx="649" cy="-90" rx="90" ry="30"/>
      </g>
      <text style="fill: #ffffff;text-anchor:middle;font-size:12.8;font-family:sanserif;font-style:normal;font-weight:700" x="649" y="-85.55">
        <tspan x="649" y="-85.55">Constructivisme</tspan>
      </text>
    </g>
    <g>
      <line style="fill: none; fill-opacity:0; stroke-width: 10; stroke: #000000" x1="649" y1="-58.9954" x2="649" y2="-35.9949"/>
      <polygon style="fill: #000000" points="644,-35.9949 649,-25.9949 654,-35.9949 "/>
      <polygon style="fill: none; fill-opacity:0; stroke-width: 10; stroke: #000000" points="644,-35.9949 649,-25.9949 654,-35.9949 "/>
    </g>
    <g>
      <line style="fill: none; fill-opacity:0; stroke-width: 10; stroke: #000000" x1="649.341" y1="60.8984" x2="649.534" y2="84.1021"/>
      <polygon style="fill: #000000" points="644.534,84.1437 649.618,94.1017 654.534,84.0604 "/>
      <polygon style="fill: none; fill-opacity:0; stroke-width: 10; stroke: #000000" points="644.534,84.1437 649.618,94.1017 654.534,84.0604 "/>
    </g>
  </g>
  <g>
    <g>
      <rect style="fill: #b1f0aa" x="275" y="100" width="220" height="80"/>
      <rect style="fill: none; fill-opacity:0; stroke-width: 2; stroke: #000000" x="275" y="100" width="220" height="80"/>
    </g>
    <text style="fill: #000000;text-anchor:middle;font-size:12.7998;font-family:sanserif;font-style:normal;font-weight:normal" x="385" y="128.45">
      <tspan x="385" y="128.45">L'apprentissage se manifeste</tspan>
      <tspan x="385" y="144.45">par un changement dans </tspan>
      <tspan x="385" y="160.45">le comportemenement</tspan>
    </text>
    <g>
      <rect style="fill: #ffda92" x="275" y="-20" width="220" height="80"/>
      <rect style="fill: none; fill-opacity:0; stroke-width: 2; stroke-dasharray: 4; stroke: #000000" x="275" y="-20" width="220" height="80"/>
    </g>
    <text style="fill: #000000;text-anchor:middle;font-size:12.7998;font-family:sanserif;font-style:normal;font-weight:normal" x="385" y="8.45">
      <tspan x="385" y="8.45">L'enseignement donne des</tspan>
      <tspan x="385" y="24.45">cours par exposés, la répétition</tspan>
      <tspan x="385" y="40.45">et le renforcement</tspan>
    </text>
    <g>
      <g>
        <ellipse style="fill: #4038b9" cx="385" cy="-90" rx="90" ry="30"/>
        <ellipse style="fill: none; fill-opacity:0; stroke-width: 2; stroke: #000000" cx="385" cy="-90" rx="90" ry="30"/>
      </g>
      <text style="fill: #ffffff;text-anchor:middle;font-size:12.8;font-family:sanserif;font-style:normal;font-weight:700" x="385" y="-85.55">
        <tspan x="385" y="-85.55">Béhaviorisme</tspan>
      </text>
    </g>
    <g>
      <line style="fill: none; fill-opacity:0; stroke-width: 10; stroke: #000000" x1="385" y1="-58.9954" x2="385" y2="-35.9827"/>
      <polygon style="fill: #000000" points="380,-35.9827 385,-25.9827 390,-35.9827 "/>
      <polygon style="fill: none; fill-opacity:0; stroke-width: 10; stroke: #000000" points="380,-35.9827 385,-25.9827 390,-35.9827 "/>
    </g>
    <g>
      <line style="fill: none; fill-opacity:0; stroke-width: 10; stroke: #000000" x1="385" y1="60.8984" x2="385" y2="84.1016"/>
      <polygon style="fill: #000000" points="380,84.1016 385,94.1016 390,84.1016 "/>
      <polygon style="fill: none; fill-opacity:0; stroke-width: 10; stroke: #000000" points="380,84.1016 385,94.1016 390,84.1016 "/>
    </g>
  </g>
</svg>
